<svg preserveAspectRatio="none" width="100%" height="100%" overflow="visible" style="display: block;" viewBox="0 0 23 18" fill="none" xmlns="http://www.w3.org/2000/svg">
<g id="Frame">
<g clip-path="url(#clip0_34_24)">
<path id="Vector" d="M7.3125 12.375C11.352 12.375 14.625 9.60469 14.625 6.1875C14.625 2.77031 11.352 0 7.3125 0C3.27305 0 0 2.77031 0 6.1875C0 7.54453 0.516797 8.79961 1.39219 9.82266C1.26914 10.1531 1.08633 10.4449 0.892969 10.691C0.724219 10.909 0.551953 11.0777 0.425391 11.1937C0.362109 11.25 0.309375 11.2957 0.274219 11.3238C0.256641 11.3379 0.242578 11.3484 0.235547 11.352L0.228516 11.359C0.0351562 11.5031 -0.0492188 11.7562 0.028125 11.9848C0.105469 12.2133 0.319922 12.375 0.5625 12.375C1.32891 12.375 2.10234 12.1781 2.7457 11.9355C3.06914 11.8125 3.37148 11.6754 3.63516 11.5348C4.71445 12.0691 5.96953 12.375 7.3125 12.375ZM15.75 6.1875C15.75 10.1355 12.266 13.1098 8.13867 13.4648C8.99297 16.0805 11.8266 18 15.1875 18C16.5305 18 17.7855 17.6941 18.8684 17.1598C19.132 17.3004 19.4309 17.4375 19.7543 17.5605C20.3977 17.8031 21.1711 18 21.9375 18C22.1801 18 22.398 17.8418 22.4719 17.6098C22.5457 17.3777 22.4648 17.1246 22.268 16.9805L22.2609 16.9734C22.2539 16.9664 22.2398 16.9594 22.2223 16.9453C22.1871 16.9172 22.1344 16.875 22.0711 16.8152C21.9445 16.6992 21.7723 16.5305 21.6035 16.3125C21.4102 16.0664 21.2273 15.7711 21.1043 15.4441C21.9797 14.4246 22.4965 13.1695 22.4965 11.809C22.4965 8.54648 19.5117 5.87109 15.7254 5.63906C15.7395 5.81836 15.7465 6.00117 15.7465 6.18398L15.75 6.1875Z" fill="var(--fill-0, currentColor)"/>
</g>
</g>
<defs>
<clipPath id="clip0_34_24">
<path d="M0 0H22.5V18H0V0Z" fill="currentColor"/>
</clipPath>
</defs>
</svg>
