<svg preserveAspectRatio="none" width="100%" height="100%" overflow="visible" style="display: block;" viewBox="0 0 14 16" fill="none" xmlns="http://www.w3.org/2000/svg">
<g id="Frame">
<g clip-path="url(#clip0_9_48)">
<path id="Vector" d="M11.3813 2.61875C10.6188 1.85625 9.38125 1.85625 8.61875 2.61875L2.86875 8.36875C1.55313 9.68437 1.55313 11.8156 2.86875 13.1313C4.18438 14.4469 6.31563 14.4469 7.63125 13.1313L12.3813 8.38125C12.7219 8.04063 13.2781 8.04063 13.6187 8.38125C13.9594 8.72188 13.9594 9.27812 13.6187 9.61875L8.86875 14.3687C6.86875 16.3687 3.63125 16.3687 1.63125 14.3687C-0.36875 12.3687 -0.36875 9.13125 1.63125 7.13125L7.38125 1.38125C8.82812 -0.065625 11.1719 -0.065625 12.6187 1.38125C14.0656 2.82812 14.0656 5.17187 12.6187 6.61875L7.11875 12.1187C6.225 13.0125 4.775 13.0125 3.88125 12.1187C2.9875 11.225 2.9875 9.775 3.88125 8.88125L8.38125 4.38125C8.72188 4.04062 9.27812 4.04062 9.61875 4.38125C9.95937 4.72187 9.95937 5.27812 9.61875 5.61875L5.11875 10.1187C4.90938 10.3281 4.90938 10.6719 5.11875 10.8813C5.32813 11.0906 5.67188 11.0906 5.88125 10.8813L11.3813 5.38125C12.1438 4.61875 12.1438 3.38125 11.3813 2.61875Z" fill="currentColor"/>
</g>
</g>
<defs>
<clipPath id="clip0_9_48">
<path d="M0 0H14V16H0V0Z" fill="white"/>
</clipPath>
</defs>
</svg>
