<svg preserveAspectRatio="none" width="100%" height="100%" overflow="visible" style="display: block;" viewBox="0 0 12 16" fill="none" xmlns="http://www.w3.org/2000/svg">
<g id="Frame">
<path id="Vector" d="M10.7063 4.70625C11.0969 4.31563 11.0969 3.68125 10.7063 3.29063C10.3156 2.9 9.68125 2.9 9.29062 3.29063L6 6.58437L2.70625 3.29375C2.31562 2.90313 1.68125 2.90313 1.29062 3.29375C0.9 3.68438 0.9 4.31875 1.29062 4.70937L4.58437 8L1.29375 11.2937C0.903125 11.6844 0.903125 12.3188 1.29375 12.7094C1.68438 13.1 2.31875 13.1 2.70937 12.7094L6 9.41562L9.29375 12.7062C9.68438 13.0969 10.3188 13.0969 10.7094 12.7062C11.1 12.3156 11.1 11.6813 10.7094 11.2906L7.41562 8L10.7063 4.70625Z" fill="currentColor"/>
</g>
</svg>
